<?xml version="1.0" encoding="iso-8859-1"?>
<!-- Generator: Adobe Illustrator 19.0.0, SVG Export Plug-In . SVG Version: 6.00 Build 0)  -->
<svg version="1.1" id="Capa_3" xmlns="http://www.w3.org/2000/svg" xmlns:xlink="http://www.w3.org/1999/xlink" x="0px" y="0px"
	 viewBox="0 0 512 512" style="enable-background:new 0 0 512 512;" xml:space="preserve">
<path style="fill:#314E55;" d="M457.143,201.143H338.286v-192c0-5.049-4.089-9.143-9.143-9.143H192
	c-5.053,0-9.143,4.094-9.143,9.143V256h-128c-5.053,0-9.143,4.094-9.143,9.143v237.714c0,5.049,4.089,9.143,9.143,9.143h36.571h64
	H192h36.571h64h36.571h36.571h54.857h36.571c5.053,0,9.143-4.094,9.143-9.143V210.286
	C466.286,205.237,462.196,201.143,457.143,201.143z"/>
<path style="fill:#D8D8D8;" d="M64,274.286h118.857v219.429h-18.286v-36.571c0-5.049-4.089-9.143-9.143-9.143h-64
	c-5.053,0-9.143,4.094-9.143,9.143v36.571H64V274.286z"/>
<path style="fill:#E4AD40;" d="M201.143,265.143V18.286H320v192v283.429h-18.286v-36.571c0-5.049-4.089-9.143-9.143-9.143h-64
	c-5.053,0-9.143,4.094-9.143,9.143v36.571h-18.286V265.143z"/>
<g>
	<rect x="82.286" y="301.714" style="fill:#314E55;" width="36.571" height="18.286"/>
	<rect x="219.429" y="301.714" style="fill:#314E55;" width="36.571" height="18.286"/>
	<rect x="219.429" y="265.143" style="fill:#314E55;" width="36.571" height="18.286"/>
	<rect x="219.429" y="228.571" style="fill:#314E55;" width="36.571" height="18.286"/>
	<rect x="219.429" y="192" style="fill:#314E55;" width="36.571" height="18.286"/>
	<rect x="219.429" y="155.429" style="fill:#314E55;" width="82.286" height="18.286"/>
	<rect x="219.429" y="118.857" style="fill:#314E55;" width="82.286" height="18.286"/>
	<rect x="219.429" y="82.286" style="fill:#314E55;" width="82.286" height="18.286"/>
	<rect x="219.429" y="45.714" style="fill:#314E55;" width="82.286" height="18.286"/>
	<rect x="82.286" y="338.286" style="fill:#314E55;" width="36.571" height="18.286"/>
	<rect x="219.429" y="338.286" style="fill:#314E55;" width="36.571" height="18.286"/>
	<rect x="82.286" y="374.857" style="fill:#314E55;" width="36.571" height="18.286"/>
	<rect x="219.429" y="374.857" style="fill:#314E55;" width="36.571" height="18.286"/>
	<rect x="82.286" y="411.429" style="fill:#314E55;" width="36.571" height="18.286"/>
	<rect x="219.429" y="411.429" style="fill:#314E55;" width="36.571" height="18.286"/>
	<rect x="128" y="301.714" style="fill:#314E55;" width="36.571" height="18.286"/>
	<rect x="265.143" y="301.714" style="fill:#314E55;" width="36.571" height="18.286"/>
	<rect x="265.143" y="265.143" style="fill:#314E55;" width="36.571" height="18.286"/>
	<rect x="265.143" y="228.571" style="fill:#314E55;" width="36.571" height="18.286"/>
	<rect x="265.143" y="192" style="fill:#314E55;" width="36.571" height="18.286"/>
	<rect x="128" y="338.286" style="fill:#314E55;" width="36.571" height="18.286"/>
	<rect x="265.143" y="338.286" style="fill:#314E55;" width="36.571" height="18.286"/>
	<rect x="128" y="374.857" style="fill:#314E55;" width="36.571" height="18.286"/>
	<rect x="265.143" y="374.857" style="fill:#314E55;" width="36.571" height="18.286"/>
	<rect x="128" y="411.429" style="fill:#314E55;" width="36.571" height="18.286"/>
	<rect x="265.143" y="411.429" style="fill:#314E55;" width="36.571" height="18.286"/>
</g>
<rect x="100.571" y="466.286" style="fill:#D8D8D8;" width="45.714" height="27.429"/>
<rect x="237.714" y="466.286" style="fill:#E4AD40;" width="45.714" height="27.429"/>
<g>
	<rect x="374.857" y="475.429" style="fill:#E9E7D1;" width="36.571" height="18.286"/>
	<path style="fill:#E9E7D1;" d="M448,493.714h-18.286v-27.429c0-5.049-4.089-9.143-9.143-9.143h-54.857
		c-5.053,0-9.143,4.094-9.143,9.143v27.429h-18.286V219.429H448V493.714z"/>
</g>
<g>
	<rect x="356.571" y="237.714" style="fill:#314E55;" width="18.286" height="54.857"/>
	<rect x="356.571" y="310.857" style="fill:#314E55;" width="18.286" height="54.857"/>
	<rect x="356.571" y="384" style="fill:#314E55;" width="18.286" height="54.857"/>
	<rect x="411.429" y="237.714" style="fill:#314E55;" width="18.286" height="54.857"/>
	<rect x="411.429" y="310.857" style="fill:#314E55;" width="18.286" height="54.857"/>
	<rect x="411.429" y="384" style="fill:#314E55;" width="18.286" height="54.857"/>
	<rect x="384" y="237.714" style="fill:#314E55;" width="18.286" height="54.857"/>
	<rect x="384" y="310.857" style="fill:#314E55;" width="18.286" height="54.857"/>
	<rect x="384" y="384" style="fill:#314E55;" width="18.286" height="54.857"/>
</g>
<g>
</g>
<g>
</g>
<g>
</g>
<g>
</g>
<g>
</g>
<g>
</g>
<g>
</g>
<g>
</g>
<g>
</g>
<g>
</g>
<g>
</g>
<g>
</g>
<g>
</g>
<g>
</g>
<g>
</g>
</svg>
