<svg id="Capa_2" enable-background="new 0 0 512 512" viewBox="0 0 512 512" xmlns="http://www.w3.org/2000/svg"><g><ellipse cx="255.106" cy="459.134" fill="#d0cee7" rx="137.067" ry="52.866"/><g><path d="m424.722 172.61c-1.209 54.347-28.109 102.36-69.043 132.367-34.05 24.961-53.761 64.995-53.761 107.215 0 25.747-21.07 47.434-46.812 46.942-24.944-.476-45.005-20.833-45.005-45.891v-1.044c0-42.35-19.958-82.322-54.061-107.432-41.729-30.724-68.804-80.2-68.804-135.985 0-94.022 76.877-170.087 171.183-168.766 93.301 1.308 168.379 79.307 166.303 172.594z" fill="#dd636e"/><circle cx="256.007" cy="168.777" fill="#f6f9f9" r="119.241"/><path d="m292.413 282.339c-11.473 3.683-23.718 5.674-36.411 5.674-65.853 0-119.237-53.384-119.237-119.236 0-65.878 53.384-119.261 119.237-119.261 12.693 0 24.937 1.991 36.411 5.674-48.033 15.381-82.826 60.402-82.826 113.587 0 53.16 34.793 98.182 82.826 113.562z" fill="#dddaec"/></g></g></svg>